<svg id="svg" version="1.1" xmlns="http://www.w3.org/2000/svg" xmlns:xlink="http://www.w3.org/1999/xlink" width="400" height="400" viewBox="0, 0, 400,400"><g id="svgg"><path id="path0" d="M275.200 74.348 C 269.380 76.125,264.290 80.806,220.475 124.674 L 174.149 171.056 172.691 188.841 C 171.063 208.683,171.275 210.236,176.077 213.655 C 178.923 215.681,184.390 222.276,183.753 222.914 C 183.493 223.174,178.312 220.664,172.240 217.336 C 147.245 203.638,137.514 202.791,131.885 213.825 C 127.059 223.285,132.130 233.664,152.880 256.800 C 187.988 295.945,185.382 297.733,140.281 265.446 C 95.551 233.424,83.122 228.476,70.454 237.653 C 52.557 250.618,67.742 280.587,115.927 327.397 C 145.042 355.683,147.274 357.170,152.969 352.082 C 158.410 347.221,157.316 344.672,144.782 333.000 C 111.172 301.703,89.654 277.333,82.575 262.548 C 72.967 242.482,85.529 246.005,125.219 274.509 C 161.655 300.675,166.921 303.600,177.600 303.600 C 188.060 303.600,192.400 299.382,192.400 289.217 C 192.400 279.407,187.065 270.786,167.730 249.354 C 154.502 234.692,146.400 224.713,146.400 223.085 C 146.400 221.705,149.616 223.157,163.600 230.850 C 178.954 239.296,182.631 240.801,187.901 240.797 C 199.947 240.787,204.862 225.291,196.714 213.007 L 194.464 209.614 196.232 209.247 C 197.204 209.045,200.880 208.654,204.400 208.377 L 210.800 207.874 257.033 161.737 C 308.903 109.975,308.078 110.966,308.216 100.276 C 308.447 82.366,291.789 69.284,275.200 74.348 M290.829 88.368 C 296.406 92.622,298.121 100.818,294.607 106.428 C 293.652 107.953,273.294 128.760,249.367 152.666 L 205.862 196.132 195.131 197.146 C 189.229 197.703,184.265 198.049,184.100 197.913 C 183.935 197.777,184.187 192.900,184.661 187.074 L 185.523 176.483 229.361 132.589 C 253.473 108.448,274.460 87.992,276.000 87.132 C 280.012 84.891,287.039 85.477,290.829 88.368 " stroke="none" fill="#ffffff" fill-rule="evenodd"></path></g></svg>
